<svg xmlns="http://www.w3.org/2000/svg" viewBox="0 0 512 512" fill="none" role="img" aria-labelledby="title desc">
  <title id="title">SRG 역지오코딩 브랜드 아이콘</title>
  <desc id="desc">지도 핀, 좌표 십자선, 경로 라인을 조합한 SRG 역지오코딩 아이콘. 시스템 라이트/다크 모드에 따라 색상이 자동 전환됩니다.</desc>

  <style>
    .dark-mode { display: none; }
    @media (prefers-color-scheme: dark) {
      .light-mode { display: none; }
      .dark-mode { display: inline; }
    }
  </style>

  <defs>
    <!-- Light mode palettes -->
    <linearGradient id="tile-light" x1="74" y1="86" x2="438" y2="430" gradientUnits="userSpaceOnUse">
      <stop offset="0" stop-color="#191C43"/>
      <stop offset="0.54" stop-color="#5B4BE2"/>
      <stop offset="1" stop-color="#2AA7FF"/>
    </linearGradient>
    <linearGradient id="pin-light" x1="203" y1="104" x2="309" y2="372" gradientUnits="userSpaceOnUse">
      <stop offset="0" stop-color="#FFFFFF"/>
      <stop offset="0.74" stop-color="#FFFFFF"/>
      <stop offset="1" stop-color="#EAF6FF"/>
    </linearGradient>
    <linearGradient id="core-light" x1="219" y1="169" x2="296" y2="247" gradientUnits="userSpaceOnUse">
      <stop offset="0" stop-color="#6E61FF"/>
      <stop offset="1" stop-color="#2AA7FF"/>
    </linearGradient>
    <radialGradient id="ambient-light" cx="50%" cy="50%" r="50%">
      <stop offset="0" stop-color="#5B4BE2" stop-opacity=".20"/>
      <stop offset="1" stop-color="#5B4BE2" stop-opacity="0"/>
    </radialGradient>
    <radialGradient id="shine-top-light" cx="50%" cy="50%" r="50%">
      <stop offset="0" stop-color="#FFFFFF" stop-opacity=".20"/>
      <stop offset="1" stop-color="#FFFFFF" stop-opacity="0"/>
    </radialGradient>
    <radialGradient id="shine-bottom-light" cx="50%" cy="50%" r="50%">
      <stop offset="0" stop-color="#2AA7FF" stop-opacity=".30"/>
      <stop offset="1" stop-color="#2AA7FF" stop-opacity="0"/>
    </radialGradient>

    <!-- Dark mode palettes -->
    <linearGradient id="tile-dark" x1="74" y1="86" x2="438" y2="430" gradientUnits="userSpaceOnUse">
      <stop offset="0" stop-color="#050A1F"/>
      <stop offset="0.55" stop-color="#382AC8"/>
      <stop offset="1" stop-color="#00B8FF"/>
    </linearGradient>
    <linearGradient id="pin-dark" x1="203" y1="104" x2="309" y2="372" gradientUnits="userSpaceOnUse">
      <stop offset="0" stop-color="#FFFFFF"/>
      <stop offset="0.72" stop-color="#F8FAFC"/>
      <stop offset="1" stop-color="#DDF7FF"/>
    </linearGradient>
    <linearGradient id="core-dark" x1="219" y1="169" x2="296" y2="247" gradientUnits="userSpaceOnUse">
      <stop offset="0" stop-color="#8B5CF6"/>
      <stop offset="1" stop-color="#06B6D4"/>
    </linearGradient>
    <radialGradient id="ambient-dark" cx="50%" cy="50%" r="50%">
      <stop offset="0" stop-color="#00B8FF" stop-opacity=".26"/>
      <stop offset="1" stop-color="#00B8FF" stop-opacity="0"/>
    </radialGradient>
    <radialGradient id="shine-top-dark" cx="50%" cy="50%" r="50%">
      <stop offset="0" stop-color="#FFFFFF" stop-opacity=".14"/>
      <stop offset="1" stop-color="#FFFFFF" stop-opacity="0"/>
    </radialGradient>
    <radialGradient id="shine-bottom-dark" cx="50%" cy="50%" r="50%">
      <stop offset="0" stop-color="#00B8FF" stop-opacity=".34"/>
      <stop offset="1" stop-color="#00B8FF" stop-opacity="0"/>
    </radialGradient>

    <!-- Shared geometry helpers -->
    <clipPath id="tile-clip">
      <rect x="64" y="64" width="384" height="384" rx="120"/>
    </clipPath>
    <filter id="blur-soft" x="-60%" y="-60%" width="220%" height="220%">
      <feGaussianBlur stdDeviation="18"/>
    </filter>
    <filter id="blur-shadow" x="-40%" y="-40%" width="180%" height="180%">
      <feGaussianBlur stdDeviation="18"/>
    </filter>
  </defs>

  <g class="light-mode">
    <circle cx="256" cy="260" r="216" fill="url(#ambient-light)"/>
    <rect x="78" y="88" width="356" height="356" rx="112" fill="#0F172A" opacity=".16" filter="url(#blur-shadow)"/>
    <rect x="64" y="64" width="384" height="384" rx="120" fill="url(#tile-light)"/>
    <rect x="68" y="68" width="376" height="376" rx="116" stroke="#FFFFFF" stroke-opacity=".32" stroke-width="4"/>

    <g clip-path="url(#tile-clip)">
      <circle cx="360" cy="104" r="132" fill="url(#shine-top-light)" filter="url(#blur-soft)"/>
      <circle cx="112" cy="426" r="140" fill="url(#shine-bottom-light)" filter="url(#blur-soft)"/>
      <circle cx="256" cy="212" r="150" stroke="#FFFFFF" stroke-opacity=".24" stroke-width="2"/>
      <circle cx="256" cy="212" r="94" stroke="#FFFFFF" stroke-opacity=".24" stroke-width="2"/>
      <path d="M256 80v350M88 212h336" stroke="#FFFFFF" stroke-opacity=".20" stroke-width="2" stroke-linecap="round" stroke-dasharray="4 18"/>

      <path d="M111 320C155 256 197 318 237 260C278 202 323 203 391 249" stroke="#BFF5FF" stroke-opacity=".22" stroke-width="24" stroke-linecap="round" stroke-linejoin="round"/>
      <path d="M111 320C155 256 197 318 237 260C278 202 323 203 391 249" stroke="#BFF5FF" stroke-width="14" stroke-linecap="round" stroke-linejoin="round"/>
      <circle cx="111" cy="320" r="10" fill="#FFFFFF" fill-opacity=".86"/>
      <circle cx="391" cy="249" r="10" fill="#FFFFFF" fill-opacity=".86"/>
    </g>

    <path d="M256 106C197.2 106 154 149 154 204C154 282 256 392 256 392C256 392 358 282 358 204C358 149 314.8 106 256 106Z" fill="#111827" opacity=".16" transform="translate(0 16)" filter="url(#blur-shadow)"/>
    <path d="M256 96C191.2 96 144 143.3 144 204C144 289.5 256 408 256 408C256 408 368 289.5 368 204C368 143.3 320.8 96 256 96Z" fill="url(#pin-light)"/>
    <circle cx="256" cy="210" r="86" stroke="#FFFFFF" stroke-opacity=".48" stroke-width="12"/>
    <circle cx="256" cy="210" r="48" fill="url(#core-light)"/>
    <path d="M256 152v116M198 210h116" stroke="#FFFFFF" stroke-opacity=".92" stroke-width="12" stroke-linecap="round"/>
    <circle cx="256" cy="210" r="14" fill="#FFFFFF" fill-opacity=".22"/>
  </g>

  <g class="dark-mode">
    <circle cx="256" cy="260" r="216" fill="url(#ambient-dark)"/>
    <rect x="78" y="88" width="356" height="356" rx="112" fill="#000000" opacity=".36" filter="url(#blur-shadow)"/>
    <rect x="64" y="64" width="384" height="384" rx="120" fill="url(#tile-dark)"/>
    <rect x="68" y="68" width="376" height="376" rx="116" stroke="#BFF5FF" stroke-opacity=".38" stroke-width="4"/>

    <g clip-path="url(#tile-clip)">
      <circle cx="360" cy="104" r="132" fill="url(#shine-top-dark)" filter="url(#blur-soft)"/>
      <circle cx="112" cy="426" r="140" fill="url(#shine-bottom-dark)" filter="url(#blur-soft)"/>
      <circle cx="256" cy="212" r="150" stroke="#BFF5FF" stroke-opacity=".20" stroke-width="2"/>
      <circle cx="256" cy="212" r="94" stroke="#BFF5FF" stroke-opacity=".20" stroke-width="2"/>
      <path d="M256 80v350M88 212h336" stroke="#DDF7FF" stroke-opacity=".18" stroke-width="2" stroke-linecap="round" stroke-dasharray="4 18"/>

      <path d="M111 320C155 256 197 318 237 260C278 202 323 203 391 249" stroke="#67E8F9" stroke-opacity=".22" stroke-width="24" stroke-linecap="round" stroke-linejoin="round"/>
      <path d="M111 320C155 256 197 318 237 260C278 202 323 203 391 249" stroke="#67E8F9" stroke-width="14" stroke-linecap="round" stroke-linejoin="round"/>
      <circle cx="111" cy="320" r="10" fill="#E2F5FF" fill-opacity=".90"/>
      <circle cx="391" cy="249" r="10" fill="#E2F5FF" fill-opacity=".90"/>
    </g>

    <path d="M256 106C197.2 106 154 149 154 204C154 282 256 392 256 392C256 392 358 282 358 204C358 149 314.8 106 256 106Z" fill="#000000" opacity=".34" transform="translate(0 18)" filter="url(#blur-shadow)"/>
    <path d="M256 96C191.2 96 144 143.3 144 204C144 289.5 256 408 256 408C256 408 368 289.5 368 204C368 143.3 320.8 96 256 96Z" fill="url(#pin-dark)"/>
    <circle cx="256" cy="210" r="86" stroke="#67E8F9" stroke-opacity=".56" stroke-width="12"/>
    <circle cx="256" cy="210" r="48" fill="url(#core-dark)"/>
    <path d="M256 152v116M198 210h116" stroke="#FFFFFF" stroke-opacity=".96" stroke-width="12" stroke-linecap="round"/>
    <circle cx="256" cy="210" r="14" fill="#FFFFFF" fill-opacity=".24"/>
  </g>
</svg>
