<svg xmlns="http://www.w3.org/2000/svg" viewBox="0 0 512 512" fill="none">
  <style>
    .dark-mode { display: none; }
    @media (prefers-color-scheme: dark) {
      .light-mode { display: none; }
      .dark-mode { display: inline; }
    }
  </style>
  <defs>
    <linearGradient id="grad-light" x1="68" y1="256" x2="444" y2="256" gradientUnits="userSpaceOnUse">
      <stop offset="0%" stop-color="#1F232C"/>
      <stop offset="61%" stop-color="#1F232C"/>
      <stop offset="72%" stop-color="#2A58C3"/>
      <stop offset="83%" stop-color="#3B82FF"/>
      <stop offset="100%" stop-color="#3B82FF"/>
    </linearGradient>
    <linearGradient id="grad-dark" x1="68" y1="256" x2="444" y2="256" gradientUnits="userSpaceOnUse">
      <stop offset="0%" stop-color="#FFFFFF"/>
      <stop offset="61%" stop-color="#FFFFFF"/>
      <stop offset="72%" stop-color="#88B6FF"/>
      <stop offset="83%" stop-color="#3B82FF"/>
      <stop offset="100%" stop-color="#3B82FF"/>
    </linearGradient>
  </defs>

  <g class="light-mode">
    <path d="M 436.97 232.92 L 436.88 222.09 L 436.73 213.53 L 436.52 206.19 L 436.24 199.65 L 435.91 193.68 L 435.51 188.16 L 435.06 182.99 L 434.54 178.13 L 433.97 173.52 L 433.33 169.14 L 432.63 164.96 L 431.87 160.95 L 431.04 157.11 L 430.16 153.41 L 429.21 149.85 L 428.20 146.42 L 427.13 143.11 L 425.99 139.91 L 424.80 136.81 L 423.53 133.82 L 422.21 130.93 L 420.82 128.13 L 419.36 125.42 L 417.84 122.80 L 416.25 120.26 L 414.60 117.81 L 412.88 115.43 L 411.09 113.14 L 409.23 110.92 L 407.30 108.77 L 405.30 106.70 L 403.23 104.70 L 401.08 102.77 L 398.86 100.91 L 396.57 99.12 L 394.19 97.40 L 391.74 95.75 L 389.20 94.16 L 386.58 92.64 L 383.87 91.18 L 381.07 89.79 L 378.18 88.47 L 375.19 87.20 L 372.09 86.01 L 368.89 84.87 L 365.58 83.80 L 362.15 82.79 L 358.59 81.84 L 354.89 80.96 L 351.05 80.13 L 347.04 79.37 L 342.86 78.67 L 338.48 78.03 L 333.87 77.46 L 329.01 76.94 L 323.84 76.49 L 318.32 76.09 L 312.35 75.76 L 305.81 75.48 L 298.47 75.27 L 289.91 75.12 L 279.08 75.03 L 256.00 75.00 L 232.92 75.03 L 222.09 75.12 L 213.53 75.27 L 206.19 75.48 L 199.65 75.76 L 193.68 76.09 L 188.16 76.49 L 182.99 76.94 L 178.13 77.46 L 173.52 78.03 L 169.14 78.67 L 164.96 79.37 L 160.95 80.13 L 157.11 80.96 L 153.41 81.84 L 149.85 82.79 L 146.42 83.80 L 143.11 84.87 L 139.91 86.01 L 136.81 87.20 L 133.82 88.47 L 130.93 89.79 L 128.13 91.18 L 125.42 92.64 L 122.80 94.16 L 120.26 95.75 L 117.81 97.40 L 115.43 99.12 L 113.14 100.91 L 110.92 102.77 L 108.77 104.70 L 106.70 106.70 L 104.70 108.77 L 102.77 110.92 L 100.91 113.14 L 99.12 115.43 L 97.40 117.81 L 95.75 120.26 L 94.16 122.80 L 92.64 125.42 L 91.18 128.13 L 89.79 130.93 L 88.47 133.82 L 87.20 136.81 L 86.01 139.91 L 84.87 143.11 L 83.80 146.42 L 82.79 149.85 L 81.84 153.41 L 80.96 157.11 L 80.13 160.95 L 79.37 164.96 L 78.67 169.14 L 78.03 173.52 L 77.46 178.13 L 76.94 182.99 L 76.49 188.16 L 76.09 193.68 L 75.76 199.65 L 75.48 206.19 L 75.27 213.53 L 75.12 222.09 L 75.03 232.92 L 75.00 256.00 L 75.03 279.08 L 75.12 289.91 L 75.27 298.47 L 75.48 305.81 L 75.76 312.35 L 76.09 318.32 L 76.49 323.84 L 76.94 329.01 L 77.46 333.87 L 78.03 338.48 L 78.67 342.86 L 79.37 347.04 L 80.13 351.05 L 80.96 354.89 L 81.84 358.59 L 82.79 362.15 L 83.80 365.58 L 84.87 368.89 L 86.01 372.09 L 87.20 375.19 L 88.47 378.18 L 89.79 381.07 L 91.18 383.87 L 92.64 386.58 L 94.16 389.20 L 95.75 391.74 L 97.40 394.19 L 99.12 396.57 L 100.91 398.86 L 102.77 401.08 L 104.70 403.23 L 106.70 405.30 L 108.77 407.30 L 110.92 409.23 L 113.14 411.09 L 115.43 412.88 L 117.81 414.60 L 120.26 416.25 L 122.80 417.84 L 125.42 419.36 L 128.13 420.82 L 130.93 422.21 L 133.82 423.53 L 136.81 424.80 L 139.91 425.99 L 143.11 427.13 L 146.42 428.20 L 149.85 429.21 L 153.41 430.16 L 157.11 431.04 L 160.95 431.87 L 164.96 432.63 L 169.14 433.33 L 173.52 433.97 L 178.13 434.54 L 182.99 435.06 L 188.16 435.51 L 193.68 435.91 L 199.65 436.24 L 206.19 436.52 L 213.53 436.73 L 222.09 436.88 L 232.92 436.97 L 256.00 437.00 L 279.08 436.97 L 289.91 436.88 L 298.47 436.73 L 305.81 436.52 L 312.35 436.24 L 318.32 435.91 L 323.84 435.51 L 329.01 435.06 L 333.87 434.54 L 338.48 433.97 L 342.86 433.33 L 347.04 432.63 L 351.05 431.87 L 354.89 431.04 L 358.59 430.16 L 362.15 429.21 L 365.58 428.20 L 368.89 427.13 L 372.09 425.99 L 375.19 424.80 L 378.18 423.53 L 381.07 422.21 L 383.87 420.82 L 386.58 419.36 L 389.20 417.84 L 391.74 416.25 L 394.19 414.60 L 396.57 412.88 L 398.86 411.09 L 401.08 409.23 L 403.23 407.30 L 405.30 405.30 L 407.30 403.23 L 409.23 401.08 L 411.09 398.86 L 412.88 396.57 L 414.60 394.19 L 416.25 391.74 L 417.84 389.20 L 419.36 386.58 L 420.82 383.87 L 422.21 381.07 L 423.53 378.18 L 424.80 375.19 L 425.99 372.09 L 427.13 368.89 L 428.20 365.58 L 429.21 362.15 L 430.16 358.59 L 431.04 354.89 L 431.87 351.05 L 432.63 347.04 L 433.33 342.86 L 433.97 338.48 L 434.54 333.87 L 435.06 329.01 L 435.51 323.84 L 435.91 318.32 L 436.24 312.35 L 436.52 305.81 L 436.73 298.47 L 436.88 289.91 L 436.97 279.08 L 437.00 256.00 Z M 359.98 262.00 L 359.90 266.23 L 359.78 269.97 L 359.61 273.42 L 359.40 276.67 L 359.13 279.76 L 358.82 282.73 L 358.46 285.58 L 358.05 288.35 L 357.59 291.03 L 357.09 293.63 L 356.54 296.16 L 355.94 298.63 L 355.29 301.04 L 354.60 303.38 L 353.86 305.68 L 353.07 307.91 L 352.23 310.10 L 351.35 312.23 L 350.42 314.32 L 349.44 316.35 L 348.42 318.34 L 347.35 320.28 L 346.24 322.17 L 345.07 324.02 L 343.87 325.82 L 342.61 327.57 L 341.31 329.28 L 339.97 330.95 L 338.58 332.56 L 337.14 334.14 L 335.66 335.66 L 334.14 337.14 L 332.56 338.58 L 330.95 339.97 L 329.28 341.31 L 327.57 342.61 L 325.82 343.87 L 324.02 345.07 L 322.17 346.24 L 320.28 347.35 L 318.34 348.42 L 316.35 349.44 L 314.32 350.42 L 312.23 351.35 L 310.10 352.23 L 307.91 353.07 L 305.68 353.86 L 303.38 354.60 L 301.04 355.29 L 298.63 355.94 L 296.16 356.54 L 293.63 357.09 L 291.03 357.59 L 288.35 358.05 L 285.58 358.46 L 282.73 358.82 L 279.76 359.13 L 276.67 359.40 L 273.42 359.61 L 269.97 359.78 L 266.23 359.90 L 262.00 359.98 L 256.00 360.00 L 250.00 359.98 L 245.77 359.90 L 242.03 359.78 L 238.58 359.61 L 235.33 359.40 L 232.24 359.13 L 229.27 358.82 L 226.42 358.46 L 223.65 358.05 L 220.97 357.59 L 218.37 357.09 L 215.84 356.54 L 213.37 355.94 L 210.96 355.29 L 208.62 354.60 L 206.32 353.86 L 204.09 353.07 L 201.90 352.23 L 199.77 351.35 L 197.68 350.42 L 195.65 349.44 L 193.66 348.42 L 191.72 347.35 L 189.83 346.24 L 187.98 345.07 L 186.18 343.87 L 184.43 342.61 L 182.72 341.31 L 181.05 339.97 L 179.44 338.58 L 177.86 337.14 L 176.34 335.66 L 174.86 334.14 L 173.42 332.56 L 172.03 330.95 L 170.69 329.28 L 169.39 327.57 L 168.13 325.82 L 166.93 324.02 L 165.76 322.17 L 164.65 320.28 L 163.58 318.34 L 162.56 316.35 L 161.58 314.32 L 160.65 312.23 L 159.77 310.10 L 158.93 307.91 L 158.14 305.68 L 157.40 303.38 L 156.71 301.04 L 156.06 298.63 L 155.46 296.16 L 154.91 293.63 L 154.41 291.03 L 153.95 288.35 L 153.54 285.58 L 153.18 282.73 L 152.87 279.76 L 152.60 276.67 L 152.39 273.42 L 152.22 269.97 L 152.10 266.23 L 152.02 262.00 L 152.00 256.00 L 152.02 250.00 L 152.10 245.77 L 152.22 242.03 L 152.39 238.58 L 152.60 235.33 L 152.87 232.24 L 153.18 229.27 L 153.54 226.42 L 153.95 223.65 L 154.41 220.97 L 154.91 218.37 L 155.46 215.84 L 156.06 213.37 L 156.71 210.96 L 157.40 208.62 L 158.14 206.32 L 158.93 204.09 L 159.77 201.90 L 160.65 199.77 L 161.58 197.68 L 162.56 195.65 L 163.58 193.66 L 164.65 191.72 L 165.76 189.83 L 166.93 187.98 L 168.13 186.18 L 169.39 184.43 L 170.69 182.72 L 172.03 181.05 L 173.42 179.44 L 174.86 177.86 L 176.34 176.34 L 177.86 174.86 L 179.44 173.42 L 181.05 172.03 L 182.72 170.69 L 184.43 169.39 L 186.18 168.13 L 187.98 166.93 L 189.83 165.76 L 191.72 164.65 L 193.66 163.58 L 195.65 162.56 L 197.68 161.58 L 199.77 160.65 L 201.90 159.77 L 204.09 158.93 L 206.32 158.14 L 208.62 157.40 L 210.96 156.71 L 213.37 156.06 L 215.84 155.46 L 218.37 154.91 L 220.97 154.41 L 223.65 153.95 L 226.42 153.54 L 229.27 153.18 L 232.24 152.87 L 235.33 152.60 L 238.58 152.39 L 242.03 152.22 L 245.77 152.10 L 250.00 152.02 L 256.00 152.00 L 262.00 152.02 L 266.23 152.10 L 269.97 152.22 L 273.42 152.39 L 276.67 152.60 L 279.76 152.87 L 282.73 153.18 L 285.58 153.54 L 288.35 153.95 L 291.03 154.41 L 293.63 154.91 L 296.16 155.46 L 298.63 156.06 L 301.04 156.71 L 303.38 157.40 L 305.68 158.14 L 307.91 158.93 L 310.10 159.77 L 312.23 160.65 L 314.32 161.58 L 316.35 162.56 L 318.34 163.58 L 320.28 164.65 L 322.17 165.76 L 324.02 166.93 L 325.82 168.13 L 327.57 169.39 L 329.28 170.69 L 330.95 172.03 L 332.56 173.42 L 334.14 174.86 L 335.66 176.34 L 337.14 177.86 L 338.58 179.44 L 339.97 181.05 L 341.31 182.72 L 342.61 184.43 L 343.87 186.18 L 345.07 187.98 L 346.24 189.83 L 347.35 191.72 L 348.42 193.66 L 349.44 195.65 L 350.42 197.68 L 351.35 199.77 L 352.23 201.90 L 353.07 204.09 L 353.86 206.32 L 354.60 208.62 L 355.29 210.96 L 355.94 213.37 L 356.54 215.84 L 357.09 218.37 L 357.59 220.97 L 358.05 223.65 L 358.46 226.42 L 358.82 229.27 L 359.13 232.24 L 359.40 235.33 L 359.61 238.58 L 359.78 242.03 L 359.90 245.77 L 359.98 250.00 L 360.00 256.00 Z" fill="url(#grad-light)" fill-rule="evenodd"/>
  </g>

  <g class="dark-mode">
    <path d="M 436.97 232.92 L 436.88 222.09 L 436.73 213.53 L 436.52 206.19 L 436.24 199.65 L 435.91 193.68 L 435.51 188.16 L 435.06 182.99 L 434.54 178.13 L 433.97 173.52 L 433.33 169.14 L 432.63 164.96 L 431.87 160.95 L 431.04 157.11 L 430.16 153.41 L 429.21 149.85 L 428.20 146.42 L 427.13 143.11 L 425.99 139.91 L 424.80 136.81 L 423.53 133.82 L 422.21 130.93 L 420.82 128.13 L 419.36 125.42 L 417.84 122.80 L 416.25 120.26 L 414.60 117.81 L 412.88 115.43 L 411.09 113.14 L 409.23 110.92 L 407.30 108.77 L 405.30 106.70 L 403.23 104.70 L 401.08 102.77 L 398.86 100.91 L 396.57 99.12 L 394.19 97.40 L 391.74 95.75 L 389.20 94.16 L 386.58 92.64 L 383.87 91.18 L 381.07 89.79 L 378.18 88.47 L 375.19 87.20 L 372.09 86.01 L 368.89 84.87 L 365.58 83.80 L 362.15 82.79 L 358.59 81.84 L 354.89 80.96 L 351.05 80.13 L 347.04 79.37 L 342.86 78.67 L 338.48 78.03 L 333.87 77.46 L 329.01 76.94 L 323.84 76.49 L 318.32 76.09 L 312.35 75.76 L 305.81 75.48 L 298.47 75.27 L 289.91 75.12 L 279.08 75.03 L 256.00 75.00 L 232.92 75.03 L 222.09 75.12 L 213.53 75.27 L 206.19 75.48 L 199.65 75.76 L 193.68 76.09 L 188.16 76.49 L 182.99 76.94 L 178.13 77.46 L 173.52 78.03 L 169.14 78.67 L 164.96 79.37 L 160.95 80.13 L 157.11 80.96 L 153.41 81.84 L 149.85 82.79 L 146.42 83.80 L 143.11 84.87 L 139.91 86.01 L 136.81 87.20 L 133.82 88.47 L 130.93 89.79 L 128.13 91.18 L 125.42 92.64 L 122.80 94.16 L 120.26 95.75 L 117.81 97.40 L 115.43 99.12 L 113.14 100.91 L 110.92 102.77 L 108.77 104.70 L 106.70 106.70 L 104.70 108.77 L 102.77 110.92 L 100.91 113.14 L 99.12 115.43 L 97.40 117.81 L 95.75 120.26 L 94.16 122.80 L 92.64 125.42 L 91.18 128.13 L 89.79 130.93 L 88.47 133.82 L 87.20 136.81 L 86.01 139.91 L 84.87 143.11 L 83.80 146.42 L 82.79 149.85 L 81.84 153.41 L 80.96 157.11 L 80.13 160.95 L 79.37 164.96 L 78.67 169.14 L 78.03 173.52 L 77.46 178.13 L 76.94 182.99 L 76.49 188.16 L 76.09 193.68 L 75.76 199.65 L 75.48 206.19 L 75.27 213.53 L 75.12 222.09 L 75.03 232.92 L 75.00 256.00 L 75.03 279.08 L 75.12 289.91 L 75.27 298.47 L 75.48 305.81 L 75.76 312.35 L 76.09 318.32 L 76.49 323.84 L 76.94 329.01 L 77.46 333.87 L 78.03 338.48 L 78.67 342.86 L 79.37 347.04 L 80.13 351.05 L 80.96 354.89 L 81.84 358.59 L 82.79 362.15 L 83.80 365.58 L 84.87 368.89 L 86.01 372.09 L 87.20 375.19 L 88.47 378.18 L 89.79 381.07 L 91.18 383.87 L 92.64 386.58 L 94.16 389.20 L 95.75 391.74 L 97.40 394.19 L 99.12 396.57 L 100.91 398.86 L 102.77 401.08 L 104.70 403.23 L 106.70 405.30 L 108.77 407.30 L 110.92 409.23 L 113.14 411.09 L 115.43 412.88 L 117.81 414.60 L 120.26 416.25 L 122.80 417.84 L 125.42 419.36 L 128.13 420.82 L 130.93 422.21 L 133.82 423.53 L 136.81 424.80 L 139.91 425.99 L 143.11 427.13 L 146.42 428.20 L 149.85 429.21 L 153.41 430.16 L 157.11 431.04 L 160.95 431.87 L 164.96 432.63 L 169.14 433.33 L 173.52 433.97 L 178.13 434.54 L 182.99 435.06 L 188.16 435.51 L 193.68 435.91 L 199.65 436.24 L 206.19 436.52 L 213.53 436.73 L 222.09 436.88 L 232.92 436.97 L 256.00 437.00 L 279.08 436.97 L 289.91 436.88 L 298.47 436.73 L 305.81 436.52 L 312.35 436.24 L 318.32 435.91 L 323.84 435.51 L 329.01 435.06 L 333.87 434.54 L 338.48 433.97 L 342.86 433.33 L 347.04 432.63 L 351.05 431.87 L 354.89 431.04 L 358.59 430.16 L 362.15 429.21 L 365.58 428.20 L 368.89 427.13 L 372.09 425.99 L 375.19 424.80 L 378.18 423.53 L 381.07 422.21 L 383.87 420.82 L 386.58 419.36 L 389.20 417.84 L 391.74 416.25 L 394.19 414.60 L 396.57 412.88 L 398.86 411.09 L 401.08 409.23 L 403.23 407.30 L 405.30 405.30 L 407.30 403.23 L 409.23 401.08 L 411.09 398.86 L 412.88 396.57 L 414.60 394.19 L 416.25 391.74 L 417.84 389.20 L 419.36 386.58 L 420.82 383.87 L 422.21 381.07 L 423.53 378.18 L 424.80 375.19 L 425.99 372.09 L 427.13 368.89 L 428.20 365.58 L 429.21 362.15 L 430.16 358.59 L 431.04 354.89 L 431.87 351.05 L 432.63 347.04 L 433.33 342.86 L 433.97 338.48 L 434.54 333.87 L 435.06 329.01 L 435.51 323.84 L 435.91 318.32 L 436.24 312.35 L 436.52 305.81 L 436.73 298.47 L 436.88 289.91 L 436.97 279.08 L 437.00 256.00 Z M 359.98 262.00 L 359.90 266.23 L 359.78 269.97 L 359.61 273.42 L 359.40 276.67 L 359.13 279.76 L 358.82 282.73 L 358.46 285.58 L 358.05 288.35 L 357.59 291.03 L 357.09 293.63 L 356.54 296.16 L 355.94 298.63 L 355.29 301.04 L 354.60 303.38 L 353.86 305.68 L 353.07 307.91 L 352.23 310.10 L 351.35 312.23 L 350.42 314.32 L 349.44 316.35 L 348.42 318.34 L 347.35 320.28 L 346.24 322.17 L 345.07 324.02 L 343.87 325.82 L 342.61 327.57 L 341.31 329.28 L 339.97 330.95 L 338.58 332.56 L 337.14 334.14 L 335.66 335.66 L 334.14 337.14 L 332.56 338.58 L 330.95 339.97 L 329.28 341.31 L 327.57 342.61 L 325.82 343.87 L 324.02 345.07 L 322.17 346.24 L 320.28 347.35 L 318.34 348.42 L 316.35 349.44 L 314.32 350.42 L 312.23 351.35 L 310.10 352.23 L 307.91 353.07 L 305.68 353.86 L 303.38 354.60 L 301.04 355.29 L 298.63 355.94 L 296.16 356.54 L 293.63 357.09 L 291.03 357.59 L 288.35 358.05 L 285.58 358.46 L 282.73 358.82 L 279.76 359.13 L 276.67 359.40 L 273.42 359.61 L 269.97 359.78 L 266.23 359.90 L 262.00 359.98 L 256.00 360.00 L 250.00 359.98 L 245.77 359.90 L 242.03 359.78 L 238.58 359.61 L 235.33 359.40 L 232.24 359.13 L 229.27 358.82 L 226.42 358.46 L 223.65 358.05 L 220.97 357.59 L 218.37 357.09 L 215.84 356.54 L 213.37 355.94 L 210.96 355.29 L 208.62 354.60 L 206.32 353.86 L 204.09 353.07 L 201.90 352.23 L 199.77 351.35 L 197.68 350.42 L 195.65 349.44 L 193.66 348.42 L 191.72 347.35 L 189.83 346.24 L 187.98 345.07 L 186.18 343.87 L 184.43 342.61 L 182.72 341.31 L 181.05 339.97 L 179.44 338.58 L 177.86 337.14 L 176.34 335.66 L 174.86 334.14 L 173.42 332.56 L 172.03 330.95 L 170.69 329.28 L 169.39 327.57 L 168.13 325.82 L 166.93 324.02 L 165.76 322.17 L 164.65 320.28 L 163.58 318.34 L 162.56 316.35 L 161.58 314.32 L 160.65 312.23 L 159.77 310.10 L 158.93 307.91 L 158.14 305.68 L 157.40 303.38 L 156.71 301.04 L 156.06 298.63 L 155.46 296.16 L 154.91 293.63 L 154.41 291.03 L 153.95 288.35 L 153.54 285.58 L 153.18 282.73 L 152.87 279.76 L 152.60 276.67 L 152.39 273.42 L 152.22 269.97 L 152.10 266.23 L 152.02 262.00 L 152.00 256.00 L 152.02 250.00 L 152.10 245.77 L 152.22 242.03 L 152.39 238.58 L 152.60 235.33 L 152.87 232.24 L 153.18 229.27 L 153.54 226.42 L 153.95 223.65 L 154.41 220.97 L 154.91 218.37 L 155.46 215.84 L 156.06 213.37 L 156.71 210.96 L 157.40 208.62 L 158.14 206.32 L 158.93 204.09 L 159.77 201.90 L 160.65 199.77 L 161.58 197.68 L 162.56 195.65 L 163.58 193.66 L 164.65 191.72 L 165.76 189.83 L 166.93 187.98 L 168.13 186.18 L 169.39 184.43 L 170.69 182.72 L 172.03 181.05 L 173.42 179.44 L 174.86 177.86 L 176.34 176.34 L 177.86 174.86 L 179.44 173.42 L 181.05 172.03 L 182.72 170.69 L 184.43 169.39 L 186.18 168.13 L 187.98 166.93 L 189.83 165.76 L 191.72 164.65 L 193.66 163.58 L 195.65 162.56 L 197.68 161.58 L 199.77 160.65 L 201.90 159.77 L 204.09 158.93 L 206.32 158.14 L 208.62 157.40 L 210.96 156.71 L 213.37 156.06 L 215.84 155.46 L 218.37 154.91 L 220.97 154.41 L 223.65 153.95 L 226.42 153.54 L 229.27 153.18 L 232.24 152.87 L 235.33 152.60 L 238.58 152.39 L 242.03 152.22 L 245.77 152.10 L 250.00 152.02 L 256.00 152.00 L 262.00 152.02 L 266.23 152.10 L 269.97 152.22 L 273.42 152.39 L 276.67 152.60 L 279.76 152.87 L 282.73 153.18 L 285.58 153.54 L 288.35 153.95 L 291.03 154.41 L 293.63 154.91 L 296.16 155.46 L 298.63 156.06 L 301.04 156.71 L 303.38 157.40 L 305.68 158.14 L 307.91 158.93 L 310.10 159.77 L 312.23 160.65 L 314.32 161.58 L 316.35 162.56 L 318.34 163.58 L 320.28 164.65 L 322.17 165.76 L 324.02 166.93 L 325.82 168.13 L 327.57 169.39 L 329.28 170.69 L 330.95 172.03 L 332.56 173.42 L 334.14 174.86 L 335.66 176.34 L 337.14 177.86 L 338.58 179.44 L 339.97 181.05 L 341.31 182.72 L 342.61 184.43 L 343.87 186.18 L 345.07 187.98 L 346.24 189.83 L 347.35 191.72 L 348.42 193.66 L 349.44 195.65 L 350.42 197.68 L 351.35 199.77 L 352.23 201.90 L 353.07 204.09 L 353.86 206.32 L 354.60 208.62 L 355.29 210.96 L 355.94 213.37 L 356.54 215.84 L 357.09 218.37 L 357.59 220.97 L 358.05 223.65 L 358.46 226.42 L 358.82 229.27 L 359.13 232.24 L 359.40 235.33 L 359.61 238.58 L 359.78 242.03 L 359.90 245.77 L 359.98 250.00 L 360.00 256.00 Z" fill="url(#grad-dark)" fill-rule="evenodd"/>
  </g>
</svg>
