<svg xmlns="http://www.w3.org/2000/svg"
     viewBox="0 0 512 512"
     width="512"
     height="512"
     role="img">
  <title>SRG Reverse Geocoding</title>

  <style>
    :root {
      color-scheme: light dark;
      --accent: light-dark(
        oklch(52% 0.28 275),
        oklch(68% 0.24 270)
      );
      --accent-glow: oklch(from var(--accent) l c h / 0.45);
    }

    .pin {
      fill: var(--accent);
      filter: drop-shadow(0 0 8px var(--accent-glow));
    }
  </style>

  <g class="pin" transform="translate(51.2 51.2) scale(0.8)">
    <path
      d="M256,0C153.755,0,70.573,83.182,70.573,185.426c0,126.888,165.939,313.167,173.004,321.035
         c6.636,7.391,18.222,7.378,24.849,0c7.065-7.868,173.004-194.147,173.004-321.035C441.427,83.182,358.245,0,256,0z
         M256,278.719c-51.442,0-93.292-41.851-93.292-93.292c0-51.441,41.851-93.292,93.292-93.292
         c51.441,0,93.292,41.851,93.292,93.292C349.292,236.868,307.441,278.719,256,278.719z" />
  </g>
</svg>